<svg id="Layer_1" data-name="Layer 1" xmlns="http://www.w3.org/2000/svg" viewBox="0 0 383 381"><defs><style>.cls-1{fill:#2e3356;}.cls-2{fill:#fff;}</style></defs><title>iconprogram</title><path class="cls-1" d="M179.93,382.71c-6.87-.95-13.77-1.7-20.59-2.88-40.72-7-75.51-25.47-104.28-55C25.89,294.86,7.82,259.06,2.79,217.57-5.32,150.72,15.75,94,65.66,48.74c30.25-27.46,66.38-42.6,107-47C252.93-6.87,332,38.46,365.38,112.07A190,190,0,0,1,382.17,177a22.42,22.42,0,0,0,.62,2.88v23.87c-.31,2.45-.65,4.89-.91,7.34-4.09,37.77-17.77,71.65-41.87,101-30,36.53-68.32,59.21-114.9,67.68-7.05,1.28-14.21,2-21.32,2.95ZM371.86,191.92c-.29-100.14-81-180.73-180.5-180.18-99.25.54-179.56,81-179.53,179.74,0,100.25,80.66,180.51,181.11,180.29C291.54,371.56,372.15,290.53,371.86,191.92Z"/><path class="cls-1" d="M377,191.67c.3,102.16-82.55,186.11-183.87,186.33C89.89,378.23,7,295.07,7,191.21,7,88.87,89.51,5.57,191.5,5,293.74,4.44,376.7,87.92,377,191.67Zm-144.93-33-3.49-.16c-42.19-1.73-65.55,27.71-63.41,60.73,1.61,24.85,14.6,42.63,37.69,48.37,21,5.2,41.27,1.78,60.72-7.33,2.79-1.31,3.66-3.66,3.55-6.65-.28-7.32-.62-14.65-.63-22q-.09-55.59,0-111.18c0-5.74-1.58-7.32-7.29-7.34q-9.77-.06-19.53,0c-5.74,0-7.55,1.84-7.57,7.64,0,11.19,0,22.39,0,33.58ZM116.88,195.77q0,32.43,0,64.87c0,5.11,2.15,7.29,7.2,7.34,6.26.07,12.51,0,18.77,0,6.58,0,8.44-1.87,8.45-8.47q0-30.88,0-61.78,0-32.82,0-65.64c0-5.9-1.94-7.8-7.83-7.81-6.13,0-12.26,0-18.38,0-6.5,0-8.21,1.7-8.21,8.16Q116.87,164.11,116.88,195.77Z"/><path class="cls-2" d="M230.83,160.1v-4.17c0-10.81,0-21.61,0-32.42,0-5.59,1.79-7.34,7.38-7.37q9.5,0,19,0c5.55,0,7.08,1.56,7.08,7.09q0,53.65,0,107.32c0,7.07.34,14.15.61,21.22.11,2.88-.74,5.15-3.46,6.41-18.92,8.79-38.65,12.1-59.07,7.07-22.47-5.53-35.12-22.69-36.68-46.68-2.08-31.87,20.65-60.29,61.7-58.62Zm8.78,11c-1.5-.37-2.44-.64-3.4-.84-16.91-3.64-32.74-1.44-46.37,9.77-13,10.65-16.62,25-15,41.21,1.63,16.63,9.63,28.68,25.65,34.21,18.42,6.36,36.5,3.49,54.1-3.72.83-.34,1.53-2.1,1.53-3.19q0-59.65-.18-119.32V125H239.61Z"/><path class="cls-2" d="M118.75,195.87q0-30.56,0-61.12c0-6.24,1.67-7.87,8-7.88,6,0,11.93,0,17.89,0,5.73,0,7.62,1.84,7.62,7.54q0,31.68,0,63.36,0,29.82,0,59.63c0,6.37-1.82,8.17-8.22,8.18-6.09,0-12.18.05-18.26,0-4.92-.05-7-2.15-7-7.09Q118.72,227.19,118.75,195.87Zm8.93-60.11V256.6h15.51V135.76Z"/><path class="cls-2" d="M239.61,171.13V125H255.9v4.28q.12,59.66.18,119.32c0,1.09-.7,2.85-1.53,3.19-17.6,7.21-35.68,10.08-54.1,3.72-16-5.53-24-17.58-25.65-34.21-1.58-16.17,2.09-30.56,15-41.21,13.63-11.21,29.46-13.41,46.37-9.77C237.17,170.49,238.11,170.76,239.61,171.13Zm0,41.91c0-9.81.08-19.62-.09-29.43a4.77,4.77,0,0,0-2.08-3.6c-15-6.82-38-2.08-44.11,19.28a56.55,56.55,0,0,0-1.95,17.62c1.35,30.75,27.72,36.69,45,30.09,2.47-.94,3.33-2.23,3.28-4.91C239.49,232.41,239.59,222.73,239.59,213Z"/><path class="cls-2" d="M127.68,135.76h15.51V256.6H127.68Z"/><path class="cls-2" d="M239.59,213c0,9.69-.1,19.37.07,29.05.05,2.68-.81,4-3.28,4.91-17.3,6.6-43.67.66-45-30.09a56.55,56.55,0,0,1,1.95-17.62c6.06-21.36,29.11-26.1,44.11-19.28a4.77,4.77,0,0,1,2.08,3.6C239.67,193.42,239.59,203.23,239.59,213Zm-8.64.25c0-7.95,0-15.91,0-23.86,0-1.89-.43-2.86-2.49-3.3-11.8-2.53-23.64,4-26.87,15.68a51.14,51.14,0,0,0-1.53,14.71c.39,16.72,10.51,25.4,27.14,23.92,2.8-.25,3.86-1.1,3.78-4C230.82,228.7,231,221,231,213.29Z"/><path class="cls-1" d="M231,213.29c0,7.71-.13,15.41.06,23.11.08,2.94-1,3.79-3.78,4-16.63,1.48-26.75-7.2-27.14-23.92a51.14,51.14,0,0,1,1.53-14.71c3.23-11.64,15.07-18.21,26.87-15.68,2.06.44,2.51,1.41,2.49,3.3C230.9,197.38,231,205.34,231,213.29Z"/></svg>