<svg id="Layer_1" data-name="Layer 1" xmlns="http://www.w3.org/2000/svg" viewBox="0 0 383.74 383.79"><defs><style>.cls-1{fill:#2e3356;}.cls-2{fill:#fff;}</style></defs><title>iconprogram</title><path class="cls-1" d="M180.14,383c-6.87-.95-13.77-1.7-20.59-2.88-40.72-7-75.51-25.47-104.28-55C26.1,295.15,8,259.35,3,217.85-5.11,151,16,94.31,65.87,49c30.25-27.45,66.38-42.6,107-47,80.28-8.63,159.39,36.7,192.74,110.31a190.36,190.36,0,0,1,16.79,64.89,20.63,20.63,0,0,0,.61,2.89V204c-.31,2.44-.65,4.89-.91,7.34-4.08,37.77-17.77,71.65-41.87,101-30,36.52-68.32,59.2-114.9,67.67-7,1.29-14.21,2-21.31,3ZM372.07,192.21c-.29-100.15-81-180.73-180.5-180.19C92.32,12.57,12,93,12,191.76c0,100.25,80.66,180.52,181.11,180.3C291.75,371.85,372.36,290.81,372.07,192.21Z"/><path class="cls-1" d="M376,191.56c.29,100.45-82.32,183-183.38,183.21C89.67,375,7,293.23,7,191.1,7,90.47,89.28,8.56,191,8A183.84,183.84,0,0,1,376,191.56Z"/><path class="cls-1" d="M231,161.1l-3.39-.15c-41.05-1.67-63.79,26.75-61.71,58.62,1.57,24,14.21,41.15,36.68,46.68,20.43,5,40.16,1.72,59.08-7.07,2.72-1.26,3.56-3.53,3.45-6.41-.27-7.07-.59-14.15-.6-21.22q-.09-53.66,0-107.32c0-5.53-1.53-7.06-7.08-7.09q-9.51,0-19,0c-5.59,0-7.35,1.78-7.37,7.37,0,10.81,0,21.61,0,32.42Z"/><path class="cls-1" d="M118.91,196.87q0,31.31,0,62.62c0,4.94,2.09,7,7,7.09,6.09.06,12.18,0,18.27,0,6.4,0,8.21-1.81,8.21-8.18q0-29.81,0-59.63,0-31.68,0-63.36c0-5.7-1.89-7.53-7.62-7.54-6,0-11.93,0-17.89,0-6.32,0-8,1.64-8,7.88Q118.91,166.31,118.91,196.87Z"/><path class="cls-2" d="M249.71,155.87c7.65,1.6,15.33,3,22.92,4.87,4,1,5.76,3.95,5.64,8.17-.16,5,0,10-.06,15-.1,5.62-4,7.84-8.83,5a39.55,39.55,0,0,0-20.29-5.75c-3.33,0-7.55-.27-8.63,3.6-1.14,4.1,3.1,5.18,5.88,6.53,6.5,3.16,13.27,5.79,19.67,9.13,8,4.18,14.08,10.31,16.7,19.28,4.86,16.63-3.36,33.54-20.21,39.62-16.66,6-33.34,4.93-49.54-2.49-3.39-1.55-4.83-4-4.72-7.67.15-5.37-.23-10.77.18-16.11.16-2,1.42-4.78,3-5.71,1.39-.79,4.41-.05,6,1a42.24,42.24,0,0,0,23.84,7.77,19.36,19.36,0,0,0,6.56-1.15c3.73-1.31,4.4-4.69,1.31-7.18a38.28,38.28,0,0,0-7.46-4.19c-5.28-2.54-10.81-4.61-15.9-7.48-13.4-7.54-19.38-19.56-17-33.27s12.8-24.06,27.33-26.77c4.4-.82,8.92-1,13.38-1.53Zm19.82,21.77v-2.38a20.26,20.26,0,0,0-.09-4.48,3.83,3.83,0,0,0-1.92-2.58c-11.9-3.54-23.91-4.23-35.64.36-8.09,3.17-13.28,9.23-14.4,18.13-1.21,9.55,1.93,17.4,10.35,22.36,5.35,3.14,11.26,5.32,16.75,8.24,4.15,2.2,8.48,4.4,11.93,7.5,3.64,3.28,4.41,8.11,2.71,12.84-2.06,5.75-7,8-12.51,8.81a45.17,45.17,0,0,1-25.54-4.06c-1.18-.55-2.38-1-4.21-1.84a57.11,57.11,0,0,1-.05,6.87c-.39,2.89.71,4.45,3.47,5.1,4.72,1.12,9.37,2.85,14.15,3.35,10.18,1.05,20.31.57,29.4-5,14.76-9,15.44-29.14,1.16-38.74-4.62-3.11-9.92-5.19-14.92-7.72-4.45-2.24-9.24-4-13.29-6.79-8.16-5.68-7.22-16.68,1.7-21a19.07,19.07,0,0,1,9.31-2.14C255,175.09,262.07,176.51,269.53,177.64Z"/><path class="cls-2" d="M135.2,218.67V248c0,3,.07,6,0,9-.16,3.89-2.22,5.95-6.16,6q-10.68.13-21.37,0c-3.7-.06-5.67-2.1-6-5.81-.09-1-.05-2-.05-3V132.29c0-7.45,1.29-8.8,8.65-8.84,13.74-.07,27.51-.64,41.21.08a74.72,74.72,0,0,1,23.29,4.74c16.56,6.55,25.7,19.55,27,37.26,2,27.12-11.77,43.65-39.57,50C153.61,217.53,144.63,217.64,135.2,218.67Zm-8.53-9.61c3.68,0,7-.05,10.36,0,10.17.16,20.25-.31,29.95-3.78,11.22-4,20.66-10,24.57-22.21,7.56-23.55-5.33-45.51-29.64-49.74-16.6-2.88-33.4-1.41-50.12-1.11a4.32,4.32,0,0,0-1.23.48V253.86h16.11Z"/><path class="cls-2" d="M269.53,177.64c-7.46-1.13-14.52-2.55-21.64-3.12a19.07,19.07,0,0,0-9.31,2.14c-8.92,4.32-9.86,15.32-1.7,21,4.05,2.81,8.84,4.55,13.29,6.79,5,2.53,10.3,4.61,14.92,7.72,14.28,9.6,13.6,29.78-1.16,38.74-9.09,5.52-19.22,6-29.4,5-4.78-.5-9.43-2.23-14.15-3.35-2.76-.65-3.86-2.21-3.47-5.1a57.11,57.11,0,0,0,.05-6.87c1.83.79,3,1.29,4.21,1.84a45.17,45.17,0,0,0,25.54,4.06c5.51-.78,10.45-3.06,12.51-8.81,1.7-4.73.93-9.56-2.71-12.84-3.45-3.1-7.78-5.3-11.93-7.5-5.49-2.92-11.4-5.1-16.75-8.24-8.42-5-11.56-12.81-10.35-22.36,1.12-8.9,6.31-15,14.4-18.13,11.73-4.59,23.74-3.9,35.64-.36a3.83,3.83,0,0,1,1.92,2.58,20.26,20.26,0,0,1,.09,4.48Z"/><path class="cls-2" d="M126.67,209.06v44.8H110.56V132.71a4.32,4.32,0,0,1,1.23-.48c16.72-.3,33.52-1.77,50.12,1.11,24.31,4.23,37.2,26.19,29.64,49.74-3.91,12.17-13.35,18.19-24.57,22.21-9.7,3.47-19.78,3.94-29.95,3.78C133.69,209,130.35,209.06,126.67,209.06Zm.2-67.17v56.6c9.23,0,18.32,1,27.1-.25,11.29-1.58,20.26-7.46,22.63-19.75a43.18,43.18,0,0,0,.41-13c-1.31-11.17-7.77-18.45-18.45-21.71C148.21,140.64,137.56,142.32,126.87,141.89Z"/><path class="cls-2" d="M126.87,141.89c10.69.43,21.34-1.25,31.69,1.9,10.68,3.26,17.14,10.54,18.45,21.71a43.18,43.18,0,0,1-.41,13c-2.37,12.29-11.34,18.17-22.63,19.75-8.78,1.24-17.87.25-27.1.25Zm8.47,48.52c7.95.29,15.4.78,22.54-2.37,8.06-3.56,11.16-8.85,10.84-18.93-.26-8.54-4.22-14.88-12.22-16.84-6.76-1.65-13.91-1.73-21.16-2.54Z"/><path class="cls-1" d="M135.34,190.41V149.73c7.25.81,14.4.89,21.16,2.54,8,2,12,8.3,12.22,16.84.32,10.08-2.78,15.37-10.84,18.93C150.74,191.19,143.29,190.7,135.34,190.41Z"/></svg>