<svg id="Layer_1" data-name="Layer 1" xmlns="http://www.w3.org/2000/svg" viewBox="0 0 387 385"><defs><style>.cls-1{fill:#2e3356;}.cls-2{fill:#fff;}</style></defs><title>iconprogram</title><path class="cls-1" d="M181.56,385.86c-6.92-1-13.87-1.72-20.76-2.91-41.05-7.08-76.13-25.68-105.14-55.47C26.25,297.28,8,261.18,3,219.35-5.21,152,16,94.79,66.35,49.13,96.86,21.45,133.28,6.18,174.22,1.77c80.95-8.7,160.71,37,194.33,111.21a191.85,191.85,0,0,1,16.93,65.43,19.86,19.86,0,0,0,.62,2.91v24.07c-.31,2.46-.66,4.93-.92,7.4C381.06,250.87,367.27,285,343,314.64c-30.22,36.83-68.88,59.69-115.84,68.23-7.11,1.3-14.33,2-21.49,3Zm11.86-11c100.13,0,181.58-80.91,181.66-180.45C375.17,93,294,11.52,193.23,11.82c-99.88.3-181,81.41-181.15,181.09C11.94,293.41,93.1,374.84,193.42,374.83Z"/><path class="cls-1" d="M193.84,378C92.14,378,9.86,295.24,10,193.08,10.14,91.76,92.39,9.31,193.64,9,295.79,8.69,378.09,91.53,378,194.58,377.91,295.76,295.35,378,193.84,378ZM146.09,231.85c12.68,0,25.12-.07,37.56.12,1.11,0,2.78,1.54,3.2,2.72q5.07,14,9.69,28.11c1.29,4,3.65,5.79,7.83,5.7,7-.13,14,0,20.95,0,6.11,0,8.29-3,6.25-8.86q-22.56-64-45.15-128c-1.28-3.61-3.65-5.29-7.44-5.27-8.89.05-17.78,0-26.67,0-4.63,0-6.28,1.8-6.93,6.3a72.33,72.33,0,0,1-2.56,12.24c-3.74,11.34-7.82,22.57-11.75,33.85-9.21,26.39-18.31,52.83-27.69,79.16-2.42,6.81-.59,11.19,7.67,10.61,5.31-.37,10.67-.07,16-.07,6,0,7.16-.82,9-6.52C139.41,252,142.73,242,146.09,231.85Zm130.16-16.58c0-15.26,0-30.53,0-45.8,0-5.1-2.15-7.21-7.17-7.24q-9.9-.06-19.79,0c-5.18,0-7.26,2-7.26,7.07q0,46,0,92c0,5.12,2,7.19,7.11,7.23,6.35.06,12.69,0,19,0s8.08-1.83,8.08-8.22Q276.27,237.8,276.25,215.27ZM259.2,118.62c-10.29,0-18.37,7.82-18.46,17.82s8.16,18.09,18.62,18.08,17.71-7.38,17.69-17.81C277,126.05,269.68,118.6,259.2,118.62Z"/><path class="cls-2" d="M146.32,231.05c-3.31,9.94-6.59,19.77-9.85,29.61-1.87,5.61-3,6.41-8.93,6.41-5.26,0-10.54-.29-15.78.07-8.15.57-10-3.73-7.57-10.43,9.25-25.91,18.23-51.91,27.32-77.88,3.88-11.09,7.9-22.14,11.58-33.3a70.79,70.79,0,0,0,2.54-12c.63-4.43,2.26-6.18,6.83-6.2,8.77,0,17.54,0,26.31,0,3.73,0,6.08,1.63,7.33,5.18q22.25,63,44.54,125.9c2,5.72-.13,8.69-6.16,8.72-6.89,0-13.78-.1-20.67,0-4.12.08-6.45-1.72-7.73-5.61q-4.54-13.91-9.55-27.66c-.42-1.16-2.06-2.65-3.16-2.67C171.1,231,158.83,231.05,146.32,231.05Zm75.17,27.37c-.56-1.68-.91-2.83-1.32-4Q211.4,229.7,202.6,205q-11.64-32.7-23.32-65.38c-.45-1.26-1.5-3.25-2.33-3.28-7.45-.26-14.92-.15-21.26-.15L113,258.45c4.34,0,8.19-.14,12,.05,2.32.11,3.27-.82,4-2.92,3.21-10,6.64-19.93,9.83-29.94.77-2.41,1.84-3.3,4.47-3.28,15.16.14,30.32.12,45.48,0,2.38,0,3.49.69,4.26,3,3.33,10.09,6.87,20.12,10.45,30.13.39,1.1,1.51,2.71,2.36,2.75C210.89,258.55,216,258.42,221.49,258.42Z"/><path class="cls-2" d="M274.72,214.74q0,22.15,0,44.31c0,6.28-1.78,8.07-8,8.09s-12.52,0-18.77,0c-5-.05-7-2.08-7-7.12q0-45.25,0-90.49c0-5,2.06-6.93,7.16-7q9.76,0,19.52,0c5,0,7.06,2.11,7.07,7.12C274.75,184.7,274.72,199.72,274.72,214.74Zm-24.83,43.49h15.69v-86.6H249.89Z"/><path class="cls-2" d="M257.9,119.66c10.34,0,17.58,7.31,17.6,17.8,0,10.26-7.21,17.51-17.45,17.52s-18.45-7.88-18.36-17.79S247.74,119.68,257.9,119.66Zm.05,8.88c-5.18.06-8.73,3.42-8.69,8.24a8.61,8.61,0,0,0,8.94,8.58,8.4,8.4,0,0,0,8.42-8.63C266.55,131.7,263.14,128.48,258,128.54Z"/><path class="cls-2" d="M221.49,258.42c-5.5,0-10.6.13-15.67-.13-.85,0-2-1.65-2.36-2.75-3.58-10-7.12-20-10.45-30.13-.77-2.34-1.88-3-4.26-3-15.16.1-30.32.12-45.48,0-2.63,0-3.7.87-4.47,3.28-3.19,10-6.62,19.94-9.83,29.94-.68,2.1-1.63,3-4,2.92-3.82-.19-7.67-.05-12-.05l42.68-122.31c6.34,0,13.81-.11,21.26.15.83,0,1.88,2,2.33,3.28Q191,172.24,202.6,205q8.79,24.75,17.57,49.5C220.58,255.59,220.93,256.74,221.49,258.42Zm-79-46.51h46.87c-.56-2-1-3.85-1.55-5.61q-8.58-26.76-17.2-53.5c-1.93-6-1.91-6-8-4.89Z"/><path class="cls-2" d="M249.89,258.23v-86.6h15.69v86.6Z"/><path class="cls-2" d="M258,128.54c5.19-.06,8.6,3.16,8.67,8.19a8.4,8.4,0,0,1-8.42,8.63,8.61,8.61,0,0,1-8.94-8.58C249.22,132,252.77,128.6,258,128.54Z"/><path class="cls-2" d="M142.46,211.91l20.09-64c6.12-1.15,6.1-1.12,8,4.89q8.58,26.76,17.2,53.5c.56,1.76,1,3.56,1.55,5.61Zm23.78-43.49-.74,0c-3.69,11.49-7.38,23-11.13,34.65h23.22C173.73,191.27,170,179.85,166.24,168.42Z"/><path class="cls-1" d="M166.24,168.42c3.74,11.43,7.49,22.85,11.35,34.61H154.37c3.75-11.66,7.44-23.16,11.13-34.65Z"/></svg>