<svg id="Layer_1" data-name="Layer 1" xmlns="http://www.w3.org/2000/svg" viewBox="0 0 174 183"><defs><style>.cls-1{fill:#2e3356;}</style></defs><title>logo</title><circle class="cls-1" cx="76.6" cy="134.81" r="32.19"/><path class="cls-1" d="M120.62,19.6l.8.58a19.74,19.74,0,0,1,.38,31.53L103.6,65.77,68.72,92.71A1.48,1.48,0,0,1,66.43,91L81.67,49.68l8-21.58A19.73,19.73,0,0,1,119.83,19Z"/><path class="cls-1" d="M129.46,82.38h0a12.08,12.08,0,0,1-11.77,15.3l-13-.14-23.27-.25a1.66,1.66,0,0,1-.84-3.07l19.84-12.15,11.08-6.78a12.08,12.08,0,0,1,18,7.09Z"/></svg>